<mxfile modified="2020-04-20T11:18:14.549Z" host="app.diagrams.net" agent="5.0 (Windows NT 10.0; Win64; x64) AppleWebKit/537.36 (KHTML, like Gecko) Chrome/78.0.3904.108 Safari/537.36" etag="olLJHixfAobTFqgRnc1r" version="12.9.14" type="github">
  <diagram id="WmeTKDI0ov2D66W9k7iv" name="第 1 页">
    <mxGraphModel dx="1038" dy="499" grid="1" gridSize="10" guides="1" tooltips="1" connect="1" arrows="1" fold="1" page="1" pageScale="1" pageWidth="1654" pageHeight="2336" math="0" shadow="0">
      <root>
        <mxCell id="0" />
        <mxCell id="1" parent="0" />
        <mxCell id="2YWFpv4NdZ1Yad-ay4ea-1" value="" style="rounded=1;whiteSpace=wrap;html=1;fillColor=#e6d0de;strokeColor=#996185;gradientDirection=north;gradientColor=#d5739d;" parent="1" vertex="1">
          <mxGeometry x="24" y="670.5" width="712" height="70" as="geometry" />
        </mxCell>
        <mxCell id="2YWFpv4NdZ1Yad-ay4ea-2" value="" style="rounded=1;whiteSpace=wrap;html=1;fillColor=#ffcd28;strokeColor=#d79b00;gradientDirection=north;gradientColor=#ffffff;" parent="1" vertex="1">
          <mxGeometry x="25" y="500.5" width="712" height="120" as="geometry" />
        </mxCell>
        <mxCell id="2YWFpv4NdZ1Yad-ay4ea-3" value="" style="rounded=1;whiteSpace=wrap;html=1;fillColor=#1ba1e2;strokeColor=#1ba1e2;gradientDirection=north;fontColor=#ffffff;gradientColor=#ffffff;" parent="1" vertex="1">
          <mxGeometry x="25" y="90" width="711" height="371" as="geometry" />
        </mxCell>
        <mxCell id="2YWFpv4NdZ1Yad-ay4ea-4" value="" style="endArrow=none;dashed=1;html=1;shadow=0;rounded=1;comic=0;align=center;verticalAlign=bottom;horizontal=1;jumpStyle=sharp;" parent="1" edge="1">
          <mxGeometry width="50" height="50" relative="1" as="geometry">
            <mxPoint x="820" y="80" as="sourcePoint" />
            <mxPoint x="10" y="80" as="targetPoint" />
            <Array as="points" />
          </mxGeometry>
        </mxCell>
        <mxCell id="2YWFpv4NdZ1Yad-ay4ea-5" value="" style="endArrow=none;dashed=1;html=1;shadow=0;rounded=1;comic=0;align=center;verticalAlign=bottom;horizontal=1;jumpStyle=sharp;" parent="1" edge="1">
          <mxGeometry width="50" height="50" relative="1" as="geometry">
            <mxPoint x="835" y="490.5" as="sourcePoint" />
            <mxPoint x="15" y="490.5" as="targetPoint" />
            <Array as="points" />
          </mxGeometry>
        </mxCell>
        <mxCell id="2YWFpv4NdZ1Yad-ay4ea-6" value="" style="endArrow=none;dashed=1;html=1;shadow=0;rounded=1;comic=0;align=center;verticalAlign=bottom;horizontal=1;jumpStyle=sharp;" parent="1" edge="1">
          <mxGeometry width="50" height="50" relative="1" as="geometry">
            <mxPoint x="835" y="650.5" as="sourcePoint" />
            <mxPoint x="15" y="650.5" as="targetPoint" />
          </mxGeometry>
        </mxCell>
        <mxCell id="2YWFpv4NdZ1Yad-ay4ea-7" value="" style="endArrow=none;dashed=1;html=1;shadow=1;align=center;" parent="1" edge="1">
          <mxGeometry width="50" height="50" relative="1" as="geometry">
            <mxPoint x="15" y="760.5" as="sourcePoint" />
            <mxPoint x="845" y="760.5" as="targetPoint" />
          </mxGeometry>
        </mxCell>
        <mxCell id="2YWFpv4NdZ1Yad-ay4ea-8" value="RS232" style="rounded=0;whiteSpace=wrap;html=1;fillColor=#ffcccc;strokeColor=#36393d;" parent="1" vertex="1">
          <mxGeometry x="45" y="695.5" width="70" height="30" as="geometry" />
        </mxCell>
        <mxCell id="2YWFpv4NdZ1Yad-ay4ea-9" value="RS485" style="rounded=0;whiteSpace=wrap;html=1;fillColor=#ffcccc;strokeColor=#36393d;" parent="1" vertex="1">
          <mxGeometry x="145" y="695.5" width="70" height="30" as="geometry" />
        </mxCell>
        <mxCell id="2YWFpv4NdZ1Yad-ay4ea-10" value="LED" style="rounded=0;whiteSpace=wrap;html=1;fillColor=#ffcccc;strokeColor=#36393d;" parent="1" vertex="1">
          <mxGeometry x="235" y="695.5" width="70" height="30" as="geometry" />
        </mxCell>
        <mxCell id="2YWFpv4NdZ1Yad-ay4ea-11" value="WIFI/BT" style="rounded=0;whiteSpace=wrap;html=1;fillColor=#ffcccc;strokeColor=#36393d;" parent="1" vertex="1">
          <mxGeometry x="335" y="695.5" width="70" height="30" as="geometry" />
        </mxCell>
        <mxCell id="2YWFpv4NdZ1Yad-ay4ea-12" value="4G/GPS" style="rounded=0;whiteSpace=wrap;html=1;fillColor=#ffcccc;strokeColor=#36393d;" parent="1" vertex="1">
          <mxGeometry x="440" y="695.5" width="70" height="30" as="geometry" />
        </mxCell>
        <mxCell id="2YWFpv4NdZ1Yad-ay4ea-13" value="Ethernet" style="rounded=0;whiteSpace=wrap;html=1;fillColor=#ffcccc;strokeColor=#36393d;" parent="1" vertex="1">
          <mxGeometry x="540" y="695.5" width="70" height="30" as="geometry" />
        </mxCell>
        <mxCell id="2YWFpv4NdZ1Yad-ay4ea-14" value="Other" style="rounded=0;whiteSpace=wrap;html=1;fillColor=#ffcccc;strokeColor=#36393d;" parent="1" vertex="1">
          <mxGeometry x="650" y="695.5" width="70" height="30" as="geometry" />
        </mxCell>
        <mxCell id="2YWFpv4NdZ1Yad-ay4ea-15" value="&lt;font style=&quot;font-size: 15px&quot;&gt;&lt;b&gt;Hardware&lt;/b&gt;&lt;/font&gt;" style="text;html=1;resizable=0;points=[];autosize=1;align=left;verticalAlign=top;spacingTop=-4;strokeWidth=3;" parent="1" vertex="1">
          <mxGeometry x="775" y="685.5" width="80" height="20" as="geometry" />
        </mxCell>
        <mxCell id="2YWFpv4NdZ1Yad-ay4ea-16" value="RS232 Driver" style="rounded=0;whiteSpace=wrap;html=1;fillColor=#ffff88;strokeColor=#36393d;" parent="1" vertex="1">
          <mxGeometry x="45" y="575.5" width="70" height="30" as="geometry" />
        </mxCell>
        <mxCell id="2YWFpv4NdZ1Yad-ay4ea-17" value="RS485 Driver" style="rounded=0;whiteSpace=wrap;html=1;fillColor=#ffff88;strokeColor=#36393d;" parent="1" vertex="1">
          <mxGeometry x="145" y="575.5" width="70" height="30" as="geometry" />
        </mxCell>
        <mxCell id="2YWFpv4NdZ1Yad-ay4ea-18" value="LED Driver" style="rounded=0;whiteSpace=wrap;html=1;fillColor=#ffff88;strokeColor=#36393d;" parent="1" vertex="1">
          <mxGeometry x="235" y="575.5" width="70" height="30" as="geometry" />
        </mxCell>
        <mxCell id="2YWFpv4NdZ1Yad-ay4ea-19" value="WIFI/BT Driver" style="rounded=0;whiteSpace=wrap;html=1;fillColor=#ffff88;strokeColor=#36393d;" parent="1" vertex="1">
          <mxGeometry x="335" y="575.5" width="70" height="30" as="geometry" />
        </mxCell>
        <mxCell id="2YWFpv4NdZ1Yad-ay4ea-20" value="4G/GPS Driver" style="rounded=0;whiteSpace=wrap;html=1;fillColor=#ffff88;strokeColor=#36393d;" parent="1" vertex="1">
          <mxGeometry x="540" y="575.5" width="70" height="30" as="geometry" />
        </mxCell>
        <mxCell id="2YWFpv4NdZ1Yad-ay4ea-21" value="Ethernet Driver" style="rounded=0;whiteSpace=wrap;html=1;fillColor=#ffff88;strokeColor=#36393d;" parent="1" vertex="1">
          <mxGeometry x="440" y="575.5" width="70" height="30" as="geometry" />
        </mxCell>
        <mxCell id="2YWFpv4NdZ1Yad-ay4ea-22" value="Other Driver" style="rounded=0;whiteSpace=wrap;html=1;fillColor=#ffff88;strokeColor=#36393d;" parent="1" vertex="1">
          <mxGeometry x="645" y="575.5" width="70" height="30" as="geometry" />
        </mxCell>
        <mxCell id="2YWFpv4NdZ1Yad-ay4ea-23" value="" style="rounded=1;whiteSpace=wrap;html=1;gradientColor=#7ea6e0;fillColor=#dae8fc;strokeColor=#6c8ebf;" parent="1" vertex="1">
          <mxGeometry x="325" y="510.5" width="320" height="50" as="geometry" />
        </mxCell>
        <mxCell id="2YWFpv4NdZ1Yad-ay4ea-24" value="Bluetooth Protocol&amp;nbsp;" style="rounded=0;whiteSpace=wrap;html=1;fillColor=#cce5ff;strokeColor=#36393d;" parent="1" vertex="1">
          <mxGeometry x="335" y="520.5" width="90" height="31" as="geometry" />
        </mxCell>
        <mxCell id="2YWFpv4NdZ1Yad-ay4ea-25" value="TCP/IP Protocol&amp;nbsp;" style="rounded=0;whiteSpace=wrap;html=1;fillColor=#cce5ff;strokeColor=#36393d;" parent="1" vertex="1">
          <mxGeometry x="435" y="520.5" width="90" height="31" as="geometry" />
        </mxCell>
        <mxCell id="2YWFpv4NdZ1Yad-ay4ea-26" value="Other Protocol&amp;nbsp;" style="rounded=0;whiteSpace=wrap;html=1;fillColor=#cce5ff;strokeColor=#36393d;" parent="1" vertex="1">
          <mxGeometry x="540" y="520" width="90" height="31" as="geometry" />
        </mxCell>
        <mxCell id="2YWFpv4NdZ1Yad-ay4ea-31" value="&lt;div&gt;&lt;br&gt;&lt;/div&gt;" style="rounded=1;whiteSpace=wrap;html=1;fillColor=#f8cecc;strokeColor=#b85450;align=center;" parent="1" vertex="1">
          <mxGeometry x="45" y="320" width="670" height="120" as="geometry" />
        </mxCell>
        <mxCell id="2YWFpv4NdZ1Yad-ay4ea-32" value="" style="rounded=1;whiteSpace=wrap;html=1;fillColor=#d5e8d4;strokeColor=#82b366;gradientColor=#ffffff;" parent="1" vertex="1">
          <mxGeometry x="45" y="140" width="670" height="160.5" as="geometry" />
        </mxCell>
        <mxCell id="2YWFpv4NdZ1Yad-ay4ea-33" value="" style="endArrow=classic;startArrow=classic;html=1;shadow=1;dashed=1;align=center;entryX=0.5;entryY=1;exitX=0.5;exitY=0;" parent="1" source="2YWFpv4NdZ1Yad-ay4ea-8" target="2YWFpv4NdZ1Yad-ay4ea-16" edge="1">
          <mxGeometry width="50" height="50" relative="1" as="geometry">
            <mxPoint x="55" y="680.5" as="sourcePoint" />
            <mxPoint x="105" y="630.5" as="targetPoint" />
          </mxGeometry>
        </mxCell>
        <mxCell id="2YWFpv4NdZ1Yad-ay4ea-34" value="" style="endArrow=classic;startArrow=classic;html=1;shadow=1;dashed=1;align=center;entryX=0.5;entryY=1;exitX=0.5;exitY=0;" parent="1" edge="1">
          <mxGeometry width="50" height="50" relative="1" as="geometry">
            <mxPoint x="179.33333333333337" y="695.3333333333334" as="sourcePoint" />
            <mxPoint x="179.33333333333337" y="605.3333333333334" as="targetPoint" />
          </mxGeometry>
        </mxCell>
        <mxCell id="2YWFpv4NdZ1Yad-ay4ea-35" value="" style="endArrow=classic;startArrow=classic;html=1;shadow=1;dashed=1;align=center;entryX=0.5;entryY=1;exitX=0.5;exitY=0;" parent="1" edge="1">
          <mxGeometry width="50" height="50" relative="1" as="geometry">
            <mxPoint x="269.83333333333337" y="695.3333333333334" as="sourcePoint" />
            <mxPoint x="269.83333333333337" y="605.3333333333334" as="targetPoint" />
          </mxGeometry>
        </mxCell>
        <mxCell id="2YWFpv4NdZ1Yad-ay4ea-36" value="" style="endArrow=classic;startArrow=classic;html=1;shadow=1;dashed=1;align=center;entryX=0.5;entryY=1;exitX=0.5;exitY=0;" parent="1" edge="1">
          <mxGeometry width="50" height="50" relative="1" as="geometry">
            <mxPoint x="369.83333333333337" y="695.3333333333334" as="sourcePoint" />
            <mxPoint x="369.83333333333337" y="605.3333333333334" as="targetPoint" />
          </mxGeometry>
        </mxCell>
        <mxCell id="2YWFpv4NdZ1Yad-ay4ea-37" value="" style="endArrow=classic;startArrow=classic;html=1;shadow=1;dashed=1;align=center;entryX=0.5;entryY=1;exitX=0.5;exitY=0;" parent="1" edge="1">
          <mxGeometry width="50" height="50" relative="1" as="geometry">
            <mxPoint x="474.33333333333337" y="695.3333333333334" as="sourcePoint" />
            <mxPoint x="474.33333333333337" y="605.3333333333334" as="targetPoint" />
          </mxGeometry>
        </mxCell>
        <mxCell id="2YWFpv4NdZ1Yad-ay4ea-38" value="" style="endArrow=classic;startArrow=classic;html=1;shadow=1;dashed=1;align=center;entryX=0.5;entryY=1;exitX=0.5;exitY=0;" parent="1" edge="1">
          <mxGeometry width="50" height="50" relative="1" as="geometry">
            <mxPoint x="574.8333333333335" y="695.3333333333334" as="sourcePoint" />
            <mxPoint x="574.8333333333335" y="605.3333333333334" as="targetPoint" />
          </mxGeometry>
        </mxCell>
        <mxCell id="2YWFpv4NdZ1Yad-ay4ea-39" value="" style="endArrow=classic;startArrow=classic;html=1;shadow=1;dashed=1;align=center;entryX=0.5;entryY=1;exitX=0.5;exitY=0;" parent="1" edge="1">
          <mxGeometry width="50" height="50" relative="1" as="geometry">
            <mxPoint x="679.3333333333335" y="695.3333333333334" as="sourcePoint" />
            <mxPoint x="679.3333333333335" y="605.3333333333334" as="targetPoint" />
          </mxGeometry>
        </mxCell>
        <mxCell id="2YWFpv4NdZ1Yad-ay4ea-40" value="&lt;font style=&quot;font-size: 15px&quot;&gt;&lt;b&gt;Kernel&lt;/b&gt;&lt;/font&gt;" style="text;html=1;resizable=0;points=[];autosize=1;align=left;verticalAlign=top;spacingTop=-4;" parent="1" vertex="1">
          <mxGeometry x="785" y="550.5" width="60" height="20" as="geometry" />
        </mxCell>
        <mxCell id="2YWFpv4NdZ1Yad-ay4ea-41" value="&lt;font style=&quot;font-size: 15px&quot;&gt;&lt;b&gt;Application&lt;/b&gt;&lt;/font&gt;" style="text;html=1;resizable=0;points=[];autosize=1;align=left;verticalAlign=top;spacingTop=-4;" parent="1" vertex="1">
          <mxGeometry x="765" y="270.5" width="100" height="20" as="geometry" />
        </mxCell>
        <mxCell id="2YWFpv4NdZ1Yad-ay4ea-44" value="" style="endArrow=classic;startArrow=classic;html=1;entryX=0.5;entryY=1;" parent="1" source="2YWFpv4NdZ1Yad-ay4ea-2" target="2YWFpv4NdZ1Yad-ay4ea-3" edge="1">
          <mxGeometry width="50" height="50" relative="1" as="geometry">
            <mxPoint x="381" y="479.78932188134524" as="sourcePoint" />
            <mxPoint x="381" y="470.5" as="targetPoint" />
          </mxGeometry>
        </mxCell>
        <mxCell id="2YWFpv4NdZ1Yad-ay4ea-54" value="" style="endArrow=none;html=1;exitX=0.003;exitY=0.199;exitDx=0;exitDy=0;exitPerimeter=0;" parent="1" source="2YWFpv4NdZ1Yad-ay4ea-32" edge="1">
          <mxGeometry width="50" height="50" relative="1" as="geometry">
            <mxPoint x="125" y="230.5" as="sourcePoint" />
            <mxPoint x="715" y="170" as="targetPoint" />
            <Array as="points">
              <mxPoint x="380" y="170" />
            </Array>
          </mxGeometry>
        </mxCell>
        <mxCell id="2YWFpv4NdZ1Yad-ay4ea-61" value="&lt;b style=&quot;font-size: 15px&quot;&gt;MEasy HMI 2.0&lt;/b&gt;" style="text;html=1;strokeColor=none;fillColor=none;align=center;verticalAlign=middle;whiteSpace=wrap;rounded=0;fontSize=15;" parent="1" vertex="1">
          <mxGeometry x="312.5" y="100" width="130" height="20" as="geometry" />
        </mxCell>
        <mxCell id="lCJ7xUQNc93nhfFfQ1S8-2" value="&lt;b&gt;&lt;font style=&quot;font-size: 14px&quot;&gt;QT 5.12 Runtime Environment&lt;/font&gt;&lt;/b&gt;" style="text;html=1;strokeColor=none;fillColor=none;align=center;verticalAlign=middle;whiteSpace=wrap;rounded=0;" vertex="1" parent="1">
          <mxGeometry x="220.5" y="340" width="320" height="20" as="geometry" />
        </mxCell>
        <mxCell id="lCJ7xUQNc93nhfFfQ1S8-3" value="Core" style="rounded=0;whiteSpace=wrap;html=1;fillColor=#f8cecc;strokeColor=#4D4D4D;gradientColor=#ffffff;gradientDirection=north;" vertex="1" parent="1">
          <mxGeometry x="61" y="380" width="90" height="30" as="geometry" />
        </mxCell>
        <mxCell id="lCJ7xUQNc93nhfFfQ1S8-4" value="Qucik" style="rounded=0;whiteSpace=wrap;html=1;fillColor=#f8cecc;strokeColor=#4D4D4D;gradientColor=#ffffff;gradientDirection=north;" vertex="1" parent="1">
          <mxGeometry x="171" y="380" width="90" height="30" as="geometry" />
        </mxCell>
        <mxCell id="lCJ7xUQNc93nhfFfQ1S8-5" value="Multimedia" style="rounded=0;whiteSpace=wrap;html=1;fillColor=#f8cecc;strokeColor=#4D4D4D;gradientColor=#ffffff;gradientDirection=north;" vertex="1" parent="1">
          <mxGeometry x="281" y="380" width="90" height="30" as="geometry" />
        </mxCell>
        <mxCell id="lCJ7xUQNc93nhfFfQ1S8-6" value="Qcustomplot" style="rounded=0;whiteSpace=wrap;html=1;fillColor=#f8cecc;strokeColor=#4D4D4D;gradientColor=#ffffff;gradientDirection=north;" vertex="1" parent="1">
          <mxGeometry x="391" y="380" width="90" height="30" as="geometry" />
        </mxCell>
        <mxCell id="lCJ7xUQNc93nhfFfQ1S8-7" value="Virtualkeyboard" style="rounded=0;whiteSpace=wrap;html=1;fillColor=#f8cecc;strokeColor=#4D4D4D;gradientColor=#ffffff;gradientDirection=north;" vertex="1" parent="1">
          <mxGeometry x="501" y="380" width="90" height="30" as="geometry" />
        </mxCell>
        <mxCell id="lCJ7xUQNc93nhfFfQ1S8-8" value="Others" style="rounded=0;whiteSpace=wrap;html=1;fillColor=#f8cecc;strokeColor=#b85450;" vertex="1" parent="1">
          <mxGeometry x="611" y="380" width="90" height="30" as="geometry" />
        </mxCell>
        <mxCell id="lCJ7xUQNc93nhfFfQ1S8-11" value="Others" style="rounded=0;whiteSpace=wrap;html=1;fillColor=#f8cecc;strokeColor=#4D4D4D;gradientColor=#ffffff;gradientDirection=north;" vertex="1" parent="1">
          <mxGeometry x="611" y="380" width="90" height="30" as="geometry" />
        </mxCell>
        <mxCell id="lCJ7xUQNc93nhfFfQ1S8-12" value="&lt;b&gt;QML Application&lt;/b&gt;" style="text;html=1;strokeColor=none;fillColor=none;align=center;verticalAlign=middle;whiteSpace=wrap;rounded=0;" vertex="1" parent="1">
          <mxGeometry x="318" y="150" width="125" height="20" as="geometry" />
        </mxCell>
        <mxCell id="lCJ7xUQNc93nhfFfQ1S8-13" value="Multimedia" style="rounded=1;whiteSpace=wrap;html=1;strokeColor=#4D4D4D;fillColor=#d5e8d4;gradientColor=#ffffff;gradientDirection=north;" vertex="1" parent="1">
          <mxGeometry x="325" y="190" width="85" height="30" as="geometry" />
        </mxCell>
        <mxCell id="lCJ7xUQNc93nhfFfQ1S8-14" value="Smart Appliances" style="rounded=1;whiteSpace=wrap;html=1;strokeColor=#4D4D4D;fillColor=#d5e8d4;gradientColor=#ffffff;gradientDirection=north;" vertex="1" parent="1">
          <mxGeometry x="587.5" y="190" width="85" height="30" as="geometry" />
        </mxCell>
        <mxCell id="lCJ7xUQNc93nhfFfQ1S8-15" value="Public Service" style="rounded=1;whiteSpace=wrap;html=1;strokeColor=#4D4D4D;fillColor=#d5e8d4;gradientColor=#ffffff;gradientDirection=north;" vertex="1" parent="1">
          <mxGeometry x="193.5" y="190" width="85" height="30" as="geometry" />
        </mxCell>
        <mxCell id="lCJ7xUQNc93nhfFfQ1S8-16" value="System" style="rounded=1;whiteSpace=wrap;html=1;strokeColor=#4D4D4D;fillColor=#d5e8d4;gradientColor=#ffffff;gradientDirection=north;" vertex="1" parent="1">
          <mxGeometry x="452.5" y="190" width="85" height="30" as="geometry" />
        </mxCell>
        <mxCell id="lCJ7xUQNc93nhfFfQ1S8-17" value="Medical&amp;nbsp;" style="rounded=1;whiteSpace=wrap;html=1;strokeColor=#4D4D4D;fillColor=#d5e8d4;gradientColor=#ffffff;gradientDirection=north;" vertex="1" parent="1">
          <mxGeometry x="67.5" y="190" width="85" height="30" as="geometry" />
        </mxCell>
        <mxCell id="lCJ7xUQNc93nhfFfQ1S8-18" style="edgeStyle=orthogonalEdgeStyle;rounded=0;orthogonalLoop=1;jettySize=auto;html=1;exitX=0.5;exitY=1;exitDx=0;exitDy=0;" edge="1" parent="1" source="lCJ7xUQNc93nhfFfQ1S8-16" target="lCJ7xUQNc93nhfFfQ1S8-16">
          <mxGeometry relative="1" as="geometry" />
        </mxCell>
        <mxCell id="lCJ7xUQNc93nhfFfQ1S8-21" value="&lt;font style=&quot;font-size: 8px&quot;&gt;Camera&lt;/font&gt;" style="rounded=0;whiteSpace=wrap;html=1;strokeColor=#006EAF;fillColor=#1ba1e2;fontColor=#ffffff;fontSize=8;" vertex="1" parent="1">
          <mxGeometry x="279" y="245.75" width="40" height="23" as="geometry" />
        </mxCell>
        <mxCell id="lCJ7xUQNc93nhfFfQ1S8-22" value="" style="endArrow=none;html=1;" edge="1" parent="1">
          <mxGeometry width="50" height="50" relative="1" as="geometry">
            <mxPoint x="30" y="120" as="sourcePoint" />
            <mxPoint x="730" y="120" as="targetPoint" />
          </mxGeometry>
        </mxCell>
        <mxCell id="lCJ7xUQNc93nhfFfQ1S8-25" value="&lt;font style=&quot;font-size: 8px&quot;&gt;Video&lt;/font&gt;" style="rounded=0;whiteSpace=wrap;html=1;strokeColor=#006EAF;fillColor=#1ba1e2;fontColor=#ffffff;fontSize=8;" vertex="1" parent="1">
          <mxGeometry x="325" y="245.75" width="40" height="23" as="geometry" />
        </mxCell>
        <mxCell id="lCJ7xUQNc93nhfFfQ1S8-26" value="&lt;font style=&quot;font-size: 8px&quot;&gt;Music&lt;/font&gt;" style="rounded=0;whiteSpace=wrap;html=1;strokeColor=#006EAF;fillColor=#1ba1e2;fontColor=#ffffff;fontSize=8;" vertex="1" parent="1">
          <mxGeometry x="371" y="245.75" width="40" height="23" as="geometry" />
        </mxCell>
        <mxCell id="lCJ7xUQNc93nhfFfQ1S8-27" value="Picture" style="rounded=0;whiteSpace=wrap;html=1;strokeColor=#006EAF;fillColor=#1ba1e2;fontColor=#ffffff;fontSize=8;" vertex="1" parent="1">
          <mxGeometry x="416.5" y="245.75" width="40" height="23" as="geometry" />
        </mxCell>
        <mxCell id="lCJ7xUQNc93nhfFfQ1S8-33" value="&lt;font style=&quot;font-size: 3px;&quot;&gt;Ticket machine&lt;/font&gt;" style="rounded=0;whiteSpace=wrap;html=1;strokeColor=#006EAF;fillColor=#1ba1e2;fontColor=#ffffff;fontSize=3;verticalAlign=middle;" vertex="1" parent="1">
          <mxGeometry x="201" y="242.88" width="60" height="28.75" as="geometry" />
        </mxCell>
        <mxCell id="lCJ7xUQNc93nhfFfQ1S8-34" value="ECG" style="rounded=0;whiteSpace=wrap;html=1;strokeColor=#006EAF;fillColor=#1ba1e2;fontColor=#ffffff;fontSize=8;" vertex="1" parent="1">
          <mxGeometry x="80" y="245.75" width="60" height="23" as="geometry" />
        </mxCell>
      </root>
    </mxGraphModel>
  </diagram>
</mxfile>
